Coordinates
version=1
nRows=10
nColumns=40
inDegrees=yes

Units are S.I. units (second, meters, Newtons, ...)
If the header above contains a line with 'inDegrees', this indicates whether rotational values are in degrees (yes) or radians (no).

endheader
time	pelvis_tilt	pelvis_list	pelvis_rotation	pelvis_tx	pelvis_ty	pelvis_tz	hip_flexion_r	hip_adduction_r	hip_rotation_r	knee_angle_r	knee_angle_r_beta	ankle_angle_r	subtalar_angle_r	mtp_angle_r	hip_flexion_l	hip_adduction_l	hip_rotation_l	knee_angle_l	knee_angle_l_beta	ankle_angle_l	subtalar_angle_l	mtp_angle_l	lumbar_extension	lumbar_bending	lumbar_rotation	arm_flex_r	arm_add_r	arm_rot_r	elbow_flex_r	pro_sup_r	wrist_flex_r	wrist_dev_r	arm_flex_l	arm_add_l	arm_rot_l	elbow_flex_l	pro_sup_l	wrist_flex_l	wrist_dev_l
      7.54000000000000003553	      3.92342252703724447827	     -5.27993469814544624796	    178.60276085544944635330	      0.37617757304638477223	      0.71338157050535888626	     -0.61711011519577896323	     63.15683992447488748212	     -5.41613331024689870219	     11.60752858128249798142	     76.22349721948597789378	      1.33035099386477329020	     27.67369067215750888522	      0.00000000000000000000	      0.00000000000000000000	     61.17318622704127761835	    -12.93159803389807116503	    -11.21766821915294798373	     78.22307455414329524501	      1.36525020200279589844	     20.02956226975414466551	      0.00000000000000000000	      0.00000000000000000000	    -69.41057653675707683760	     -3.05930586191814724017	    -22.99854912011572949382	     62.98629629703449239742	     14.59623959377459989639	     54.62446207018250987630	      2.43637779169252866041	      6.69095675922616450748	      0.00000000000000000000	      0.00000000000000000000	    -89.78958087042205704620	   -119.91075999068682733650	    -67.50155570444992747525	     61.40277320144362960264	     80.68712482913238659421	      0.00000000000000000000	      0.00000000000000000000
      7.54499999999999992895	      6.14987278327676101242	     -2.76996231245071466986	    179.60654540547065494138	      0.37443214463311835782	      0.70785335520797543207	     -0.61276526844067635835	     65.09637807915022733596	     -4.94799282525018035983	      9.04618345290884207088	     76.27138363070447724112	      1.33118676940749991466	     27.77279618597289001514	      0.00000000000000000000	      0.00000000000000000000	     65.13806737093742071920	    -13.12164805096667485884	     -7.46302597900640840578	     79.50881669246842875509	      1.38769063564820194223	     20.05055396987450677670	      0.00000000000000000000	      0.00000000000000000000	    -64.48972229087847551909	     -1.24914919433917837033	     -3.38439024197943272299	     60.03137401850522536506	     -0.79763663436612020075	     37.48723362399964997849	      2.65570866687893181179	     10.45935273860727221518	      0.00000000000000000000	      0.00000000000000000000	     68.29526526392795915399	     -9.53000769940175906925	     85.17794092642849079766	      4.44700294737176449189	     85.67106759906243951264	      0.00000000000000000000	      0.00000000000000000000
      7.54999999999999982236	      6.13597933434071229897	     -2.77538571842118786392	    179.52139941256052679819	      0.37423675019089469584	      0.70791134000203137511	     -0.61332199047416102733	     65.04084478600019281203	     -4.73716293387252029845	      9.25258597164964591286	     76.28036126030407615417	      1.33134345860303748843	     27.77696755800339900588	      0.00000000000000000000	      0.00000000000000000000	     65.09371263200095825141	    -13.31527071187225175208	     -7.60103708053122328892	     79.50965978592702754213	      1.38770535040495657242	     20.06337043331593505968	      0.00000000000000000000	      0.00000000000000000000	    -64.48642223598892542213	     -1.37182983879586606335	     -3.34258628300936999622	     60.00675978666939158757	     -0.76916142275974930254	     37.47094630141822335645	      2.65506045506404664280	     10.43863343914477859187	      0.00000000000000000000	      0.00000000000000000000	     68.30253009804039265873	     -9.56082673145471417797	     85.17555474570313833738	      4.43844957544575269281	     85.66183721716359400489	      0.00000000000000000000	      0.00000000000000000000
      7.55499999999999971578	      6.11547736572588629400	     -2.79314188847756383893	    179.60595706387746872679	      0.37394867190826375225	      0.70806254511899224813	     -0.61319028030448974320	     65.01239034760628499043	     -4.89433659832961609482	      9.11238423606627456763	     76.30167237400915780654	      1.33171540770445795410	     27.84613514098177589062	      0.00000000000000000000	      0.00000000000000000000	     65.03916487442953098252	    -13.18505043817725663757	     -7.52084050363988509957	     79.51099265387817638384	      1.38772861333919839133	     20.03625553888286248139	      0.00000000000000000000	      0.00000000000000000000	    -64.48779834942611444148	     -1.30738563144623509693	     -3.43986834911729211228	     59.99936995630693559178	     -0.69494117868556470885	     37.36251106712169445245	      2.68641221628673054767	     10.31335524137545078815	      0.00000000000000000000	      0.00000000000000000000	     68.22933788365037344192	     -9.64236229584315829300	     85.23455675117155294629	      4.41383738452372931249	     85.66020053309959791932	      0.00000000000000000000	      0.00000000000000000000
      7.55999999999999960920	      6.09567709242440347595	     -2.80685647663980875066	    179.59648848864068781950	      0.37371284418606831590	      0.70810732784370444826	     -0.61348179352444609513	     64.98000207638277458955	     -4.84587007921543655442	      9.14494759830602710338	     76.32092411615992944007	      1.33205141399173387917	     27.87705046111855367030	      0.00000000000000000000	      0.00000000000000000000	     65.01899159266044136984	    -13.26200630696741633585	     -7.61316430996964221833	     79.51173006408323828964	      1.38774148357521442954	     20.04241305572729459072	      0.00000000000000000000	      0.00000000000000000000	    -64.47986239732132673907	     -1.35735801595192628888	     -3.45888913067229264442	     59.95952816036472654559	     -0.64746734355642387992	     37.29317049689268515067	      2.68698693592134230101	     10.23906508242571256062	      0.00000000000000000000	      0.00000000000000000000	     68.21397257072294451063	     -9.65420399695296005405	     85.26754931368142820247	      4.43385417238318790822	     85.66116884838157830018	      0.00000000000000000000	      0.00000000000000000000
      7.56500000000000039080	      6.04175756904330096830	     -2.75190435004692091070	    179.60413259076005942916	      0.37360607206609741660	      0.70835109252550787495	     -0.61350980333194315985	     64.85985514446004174260	     -4.79308686823042773284	      9.10979056495322581100	     76.28450513366689733630	      1.33141578283700434682	     27.92183739183602853018	      0.00000000000000000000	      0.00000000000000000000	     64.95295718518151772969	    -13.25551593515405279788	     -7.50534712016279836888	     79.49068886460868554877	      1.38737424536581466228	     20.03622363999855338079	      0.00000000000000000000	      0.00000000000000000000	    -64.53622289172653836431	     -1.31548108844563982345	     -3.44499628434905025287	     60.01043625720000562751	     -0.60391271219641895485	     37.19114686570842565061	      2.70336953692335457689	     10.12441387667225711766	      0.00000000000000000000	      0.00000000000000000000	     68.21645648307969622692	     -9.70122367548473718557	     85.31527491180024469486	      4.43484792900037305685	     85.66305128357896592206	      0.00000000000000000000	      0.00000000000000000000
      7.57000000000000028422	      6.09085160826177052229	     -2.77212111575325570456	    179.61410849109191190109	      0.37323731178391084118	      0.70845727764486698952	     -0.61388393976106103711	     64.87554912354984537615	     -4.76998129895970723879	      9.12760616283893888578	     76.28452508772537044024	      1.33141613110102396966	     27.96277445342717982157	      0.00000000000000000000	      0.00000000000000000000	     64.94299332918443212748	    -13.30441818665200237604	     -7.57521444079012606920	     79.45365836054142505418	      1.38672794114616770855	     20.04338556006904070728	      0.00000000000000000000	      0.00000000000000000000	    -64.46837674785990657256	     -1.36150240176325754149	     -3.44854572187004659867	     59.95095493588586066380	     -0.56520767305972885453	     37.05966131299523880216	      2.71006742126448818553	     10.01362106590842948606	      0.00000000000000000000	      0.00000000000000000000	     68.24563065711296871996	     -9.68467045624286093641	     85.29230743980102147361	      4.46617479759352775659	     85.61952448371705770569	      0.00000000000000000000	      0.00000000000000000000
      7.57500000000000017764	      6.07188374106896322502	     -2.78530633528054138992	    179.61476685523913943143	      0.37299756983022458456	      0.70853716386121123882	     -0.61414849087115264137	     64.83796207721154303272	     -4.73699655430874244644	      9.16713701013285131580	     76.30738265597024394538	      1.33181507092589623831	     27.99861449374041910687	      0.00000000000000000000	      0.00000000000000000000	     64.89953775176779515732	    -13.32349938883911555365	     -7.58859922242724049823	     79.44943245425217526190	      1.38665418516753957690	     20.04691754706359319016	      0.00000000000000000000	      0.00000000000000000000	    -64.47152437332519525626	     -1.39228058699837808909	     -3.49072889250348294965	     59.94306557913083111089	     -0.49953042563994026759	     36.93983654633247226684	      2.73686431710362665370	      9.92447086582131277055	      0.00000000000000000000	      0.00000000000000000000	     68.18484264925206161934	     -9.76371597577660388367	     85.33321205514330642927	      4.44984756206766007836	     85.62954098049716833430	      0.00000000000000000000	      0.00000000000000000000
      7.58000000000000007105	      6.04715814807321550006	     -2.78366343438370833496	    179.61257548015515794759	      0.37280320991997062396	      0.70869464591074426973	     -0.61433994168425354321	     64.78512549956006694174	     -4.70485156549550342930	      9.18157765804942904708	     76.30796459283480714930	      1.33182522764022159834	     28.01911949027611115071	      0.00000000000000000000	      0.00000000000000000000	     64.84699233108003113557	    -13.35959887676108515109	     -7.60818998972002269454	     79.43947166630049139258	      1.38648033662168979063	     20.04456212056541275501	      0.00000000000000000000	      0.00000000000000000000	    -64.48065459910631602725	     -1.41015956397227815167	     -3.50435100117581965762	     59.94584970621395569879	     -0.45673400350783988078	     36.83470585479267356277	      2.74457952808201355310	      9.84727344749781252631	      0.00000000000000000000	      0.00000000000000000000	     68.18208603275149926048	     -9.78279610559159884531	     85.36561743929676993048	      4.47126854647131466436	     85.63630198376348801048	      0.00000000000000000000	      0.00000000000000000000
      7.58499999999999996447	      6.03722568418219029951	     -2.84398705518210981325	    179.62320552914692939339	      0.37248688152848524746	      0.70889997951499494899	     -0.61457882850067035996	     64.74880504511081369401	     -4.74375998911972107663	      9.21948425755621769895	     76.31729800662573381942	      1.33198812644132424943	     28.05367736399708888939	      0.00000000000000000000	      0.00000000000000000000	     64.77372921237903824476	    -13.31900590727129340962	     -7.64860180295302605202	     79.38852460752850959125	      1.38559114270191163776	     20.04752242325534794531	      0.00000000000000000000	      0.00000000000000000000	    -64.48521983479481889390	     -1.45649474178460369700	     -3.57716654832778857553	     59.93528398193245010361	     -0.40175982002915744395	     36.69474788020921351972	      2.75886043926241519841	      9.75650484220074787345	      0.00000000000000000000	      0.00000000000000000000	     68.17839368564190749566	     -9.82138733199387381489	     85.39813029979944758452	      4.47205634452486044950	     85.64101028939870730028	      0.00000000000000000000	      0.00000000000000000000
